<svg width="16" height="16" viewBox="0 0 16 16" fill="none" xmlns="http://www.w3.org/2000/svg">
<g clip-path="url(#clip0_0_1)">
<path d="M0.183067 0.178518C0.300184 0.0613486 0.459006 -0.00447354 0.624609 -0.00447354C0.790212 -0.00447354 0.949034 0.0613486 1.06615 0.178518L4.99631 4.11164L8.92647 0.178518C8.98408 0.118824 9.05299 0.0712102 9.12919 0.0384546C9.20538 0.00569899 9.28733 -0.0115424 9.37026 -0.0122635C9.45318 -0.0129847 9.53542 0.00282889 9.61217 0.0342544C9.68892 0.06568 9.75865 0.112088 9.81729 0.170771C9.87593 0.229454 9.9223 0.299237 9.95371 0.376047C9.98511 0.452857 10.0009 0.535157 10.0002 0.618144C9.99947 0.701131 9.98224 0.783143 9.94951 0.859396C9.91678 0.935648 9.8692 1.00461 9.80955 1.06227L5.87939 4.99539L9.80955 8.92852C9.92331 9.04639 9.98626 9.20427 9.98484 9.36814C9.98342 9.53202 9.91774 9.68877 9.80194 9.80465C9.68615 9.92053 9.52951 9.98627 9.36576 9.98769C9.20201 9.98911 9.04426 9.92612 8.92647 9.81227L4.99631 5.87914L1.06615 9.81227C0.948363 9.92612 0.790606 9.98911 0.626856 9.98769C0.463107 9.98627 0.306467 9.92053 0.190675 9.80465C0.0748821 9.68877 0.00920111 9.53202 0.00777817 9.36814C0.00635523 9.20427 0.0693042 9.04639 0.183067 8.92852L4.11323 4.99539L0.183067 1.06227C0.0659861 0.945063 0.000213623 0.786121 0.000213623 0.620393C0.000213623 0.454665 0.0659861 0.295723 0.183067 0.178518Z" fill="#64FFDA"/>
</g>
<defs>
<clipPath id="clip0_0_1">
<rect width="16" height="16" fill="white"/>
</clipPath>
</defs>
</svg>
